# Blender 4.0.2
# www.blender.org
mtllib بيت3.mtl
o Plane
v -9.417136 0.000000 24.213892
v 9.417136 0.000000 24.213892
v -9.417136 0.000000 -9.567678
v 9.417136 0.000000 -9.567678
vn -0.0000 1.0000 -0.0000
vt 0.000000 0.000000
vt 1.000000 0.000000
vt 1.000000 1.000000
vt 0.000000 1.000000
s 0
f 1/1/1 2/2/1 4/3/1 3/4/1
o Plane.001
v 9.388131 18.820026 9.479437
v 9.388131 -0.014246 9.479437
v 9.388131 18.820026 -9.479437
v 9.388131 -0.014246 -9.479437
v 9.388131 18.820026 0.000000
v 9.388131 -0.014246 0.000000
v 9.388131 18.820026 7.732928
v 9.388131 -0.014246 7.732928
v 9.388131 13.767576 9.479437
v 9.388131 13.767576 -9.479437
v 9.388131 13.767576 0.000000
v 9.388131 13.767576 7.732928
v 9.388127 14.968335 7.744956
v 11.007661 14.968336 7.744956
v 9.388127 14.968335 -0.057577
v 11.007661 14.968336 -0.057577
v 9.388127 13.775366 7.744956
v 11.007661 13.775366 7.744956
v 9.388127 13.775366 -0.057577
v 11.007661 13.775366 -0.057577
v 9.388129 14.908175 -0.107826
v 11.037742 14.957520 -0.229872
v 9.388129 14.908175 -1.483208
v 11.072976 14.923615 -1.598971
v 9.388130 -0.512362 -0.107826
v 11.569839 -1.886223 0.169036
v 9.388130 -0.512362 -1.483208
v 11.479614 -1.591958 -1.455603
v 9.388130 14.989113 9.439280
v 11.029401 15.013006 8.980065
v 9.388130 14.989113 7.825105
v 11.084685 14.949455 7.627563
v 9.388131 -0.737225 9.439280
v 12.214102 -1.993470 9.271459
v 9.282733 -1.031360 7.721908
v 12.577461 -1.498711 7.670689
vn 1.0000 -0.0000 -0.0000
vn -0.0000 1.0000 -0.0000
vn -0.0000 -0.0000 -1.0000
vn -0.0000 -1.0000 -0.0000
vn -0.0000 -0.0000 1.0000
vn -1.0000 -0.0000 -0.0000
vn -0.0203 0.9997 -0.0126
vn -0.0247 -0.0048 -0.9997
vn -0.4929 -0.8672 -0.0702
vn -0.0363 0.0118 0.9993
vn 0.9995 0.0279 -0.0159
vn 0.0005 0.9998 -0.0214
vn -0.0498 -0.0003 -0.9988
vn -0.2728 -0.9588 -0.0792
vn 0.1428 0.0140 0.9897
vn -0.9995 0.0032 0.0313
vn 0.9852 0.0804 0.1514
vt 0.268258 0.500000
vt 1.000000 0.500000
vt 1.000000 1.000000
vt 0.268258 1.000000
vt 0.375000 0.000000
vt 0.625000 0.000000
vt 0.625000 0.250000
vt 0.375000 0.250000
vt 0.268258 0.000000
vt 1.000000 0.000000
vt 1.000000 0.092121
vt 0.268258 0.092121
vt 0.000000 0.000000
vt 0.000000 0.092121
vt 0.000000 0.500000
vt 0.000000 1.000000
vt 0.625000 0.500000
vt 0.375000 0.500000
vt 0.625000 0.750000
vt 0.375000 0.750000
vt 0.625000 1.000000
vt 0.375000 1.000000
vt 0.125000 0.500000
vt 0.125000 0.750000
vt 0.875000 0.500000
vt 0.875000 0.750000
s 0
usemtl Material.001
f 15/5/2 10/6/2 8/7/2 14/8/2
f 17/9/3 18/10/3 20/11/3 19/12/3
f 13/13/2 6/14/2 12/15/2 16/16/2
f 5/17/2 13/13/2 16/16/2 11/18/2
f 11/18/2 16/16/2 15/5/2 9/19/2
f 9/19/2 15/5/2 14/8/2 7/20/2
f 19/12/4 20/11/4 24/21/4 23/22/4
f 23/22/5 24/21/5 22/23/5 21/24/5
f 21/24/6 22/23/6 18/25/6 17/26/6
f 19/27/7 23/22/7 21/24/7 17/28/7
f 24/21/2 20/29/2 18/30/2 22/23/2
f 25/9/8 26/10/8 28/11/8 27/12/8
f 27/12/9 28/11/9 32/21/9 31/22/9
f 31/22/10 32/21/10 30/23/10 29/24/10
f 29/24/11 30/23/11 26/25/11 25/26/11
f 27/27/7 31/22/7 29/24/7 25/28/7
f 32/21/12 28/29/12 26/30/12 30/23/12
f 33/9/13 34/10/13 36/11/13 35/12/13
f 35/12/14 36/11/14 40/21/14 39/22/14
f 39/22/15 40/21/15 38/23/15 37/24/15
f 37/24/16 38/23/16 34/25/16 33/26/16
f 35/27/17 39/22/17 37/24/17 33/28/17
f 40/21/18 36/29/18 34/30/18 38/23/18
o Plane.002
v -9.418472 18.820026 24.285496
v -9.418472 -0.014246 24.285496
v -9.418472 18.820026 -9.661613
v -9.418472 -0.014246 -9.661613
vn 1.0000 -0.0000 -0.0000
vt 0.000000 0.000000
vt 1.000000 0.000000
vt 1.000000 1.000000
vt 0.000000 1.000000
s 0
usemtl Material.001
f 41/31/19 42/32/19 44/33/19 43/34/19
o Plane.003
v -9.583179 18.820026 -9.478912
v -9.583178 -0.014247 -9.478912
v 9.375694 18.820026 -9.478912
v 9.375696 -0.014245 -9.478912
v 4.137527 18.820026 -9.478912
v 4.137527 -0.014246 -9.478912
v -5.086677 18.820026 -9.478912
v -5.086676 -0.014246 -9.478912
v -9.583179 14.921080 -9.478912
v 9.375695 14.921082 -9.478912
v 4.137527 14.921082 -9.478912
v -5.086677 14.921080 -9.478912
v -9.583179 4.989772 -9.478912
v 9.375695 4.989774 -9.478912
v 4.137527 4.989773 -9.478912
v -5.086676 4.989772 -9.478912
v 9.375695 14.122011 -9.478912
v 4.137527 14.122010 -9.478912
v -5.086677 14.122009 -9.478912
v -9.583179 14.122009 -9.478912
v -9.583179 6.074226 -9.478912
v 9.375695 6.074227 -9.478912
v 4.137527 6.074226 -9.478912
v -5.086676 6.074225 -9.478912
v 9.375695 10.098119 -9.478912
v 4.137527 10.098118 -9.478912
v -5.086676 10.098118 -9.478912
v -9.583179 10.098118 -9.478912
v -0.474574 -0.014246 -9.478912
v -0.474576 18.820026 -9.478912
v -0.474575 14.921081 -9.478912
v -0.474575 4.989773 -9.478912
v -0.474575 14.122009 -9.478912
v -0.474575 6.074226 -9.478912
v -0.474575 10.098118 -9.478912
v -2.780627 18.820026 -9.478912
v -2.780625 -0.014246 -9.478912
v -2.780626 14.921081 -9.478912
v -2.780626 4.989773 -9.478912
v -2.780626 14.122009 -9.478912
v -2.780626 6.074226 -9.478912
v -2.780626 10.098118 -9.478912
v -3.911479 18.820026 -9.478912
v -3.911477 -0.014246 -9.478912
v -3.911478 14.921080 -9.478912
v -3.911478 4.989772 -9.478912
v -3.911478 14.122009 -9.478912
v -3.911478 6.074226 -9.478912
v -3.911478 10.098118 -9.478912
v -1.627600 -0.014246 -9.478912
v -1.627601 14.921081 -9.478912
v -1.627600 4.989773 -9.478912
v -1.627601 14.122009 -9.478912
v -1.627600 6.074226 -9.478912
v -1.627600 10.098118 -9.478912
v -1.627601 18.820026 -9.478912
v 1.809721 -0.014246 -9.478912
v 1.809720 14.921081 -9.478912
v 1.809721 4.989773 -9.478912
v 1.809720 14.122009 -9.478912
v 1.809721 6.074226 -9.478912
v 1.809721 10.098118 -9.478912
v 1.809720 18.820026 -9.478912
v 0.667572 18.820026 -9.478912
v 0.667574 -0.014246 -9.478912
v 0.667573 14.921081 -9.478912
v 0.667573 4.989773 -9.478912
v 0.667573 14.122009 -9.478912
v 0.667573 6.074226 -9.478912
v 0.667573 10.098118 -9.478912
v 2.973624 -0.014246 -9.478912
v 2.973623 14.921081 -9.478912
v 2.973624 4.989773 -9.478912
v 2.973624 14.122009 -9.478912
v 2.973624 6.074226 -9.478912
v 2.973624 10.098118 -9.478912
v 2.973623 18.820026 -9.478912
v -9.583179 8.086172 -9.478912
v 9.375695 8.086173 -9.478912
v 4.137527 8.086172 -9.478912
v -5.086676 8.086172 -9.478912
v -0.474575 8.086172 -9.478912
v -2.780626 8.086172 -9.478912
v -3.911478 8.086172 -9.478912
v -1.627600 8.086172 -9.478912
v 1.809721 8.086172 -9.478912
v 0.667573 8.086172 -9.478912
v 2.973624 8.086172 -9.478912
v -5.100473 5.011399 -9.478912
v -5.100473 5.011399 -12.139886
v 4.144014 5.011399 -9.478911
v 4.144014 5.011399 -12.139885
v -5.100473 6.054172 -9.478912
v -5.100473 6.054172 -12.139886
v 4.144014 6.054172 -9.478911
v 4.144014 6.054172 -12.139885
v -5.104809 14.130650 -9.478914
v -5.104809 14.130650 -12.439947
v 4.173788 14.130649 -9.478914
v 4.173788 14.130649 -12.439947
v -5.104809 14.911472 -9.478914
v -5.104809 14.911472 -12.439947
v 4.173788 14.911472 -9.478914
v 4.173788 14.911472 -12.439947
v 4.186299 4.927259 -9.478910
v 4.186299 4.927259 -12.505434
v 5.135085 4.927259 -9.478910
v 5.135085 4.927259 -12.505434
v 4.186299 14.933498 -9.478910
v 4.186299 14.933498 -12.505434
v 5.135086 14.933498 -9.478910
v 5.135086 14.933498 -12.505434
v -6.614189 4.978321 -9.478913
v -6.614189 4.978321 -12.449241
v -5.132294 4.978321 -9.478913
v -5.132294 4.978321 -12.449241
v -6.614188 14.911697 -9.478913
v -6.614188 14.911697 -12.449241
v -5.132294 14.911697 -9.478913
v -5.132294 14.911697 -12.449241
vn -0.0000 -0.0000 1.0000
vn -0.0000 -1.0000 -0.0000
vn -0.0000 1.0000 -0.0000
vn -1.0000 -0.0000 -0.0000
vn 1.0000 -0.0000 -0.0000
vn -0.0000 -0.0000 -1.0000
vt 0.734313 0.723709
vt 1.000000 0.723709
vt 1.000000 1.000000
vt 0.734313 1.000000
vt 0.734313 0.662318
vt 1.000000 0.662318
vt 0.734313 0.000000
vt 1.000000 0.000000
vt 1.000000 0.237171
vt 0.734313 0.237171
vt 0.000000 0.000000
vt 0.207013 0.000000
vt 0.207013 0.237171
vt 0.000000 0.237171
vt 0.000000 0.662318
vt 0.207013 0.662318
vt 0.207013 0.723709
vt 0.000000 0.723709
vt 0.207013 1.000000
vt 0.000000 1.000000
vt 0.676734 0.000000
vt 0.676734 0.237171
vt 0.676734 0.662318
vt 0.676734 0.723709
vt 0.676734 1.000000
vt 0.249440 0.723709
vt 0.249440 1.000000
vt 0.249440 0.662318
vt 0.249440 0.000000
vt 0.249440 0.237171
vt 0.569911 0.723709
vt 0.569911 1.000000
vt 0.569911 0.662318
vt 0.569911 0.000000
vt 0.569911 0.237171
vt 0.463087 0.000000
vt 0.463087 0.237171
vt 0.463087 0.723709
vt 0.463087 1.000000
vt 0.569911 0.419623
vt 0.676734 0.419623
vt 0.676734 0.480440
vt 0.569911 0.480440
vt 0.207013 0.419623
vt 0.249440 0.419623
vt 0.249440 0.480440
vt 0.207013 0.480440
vt 0.734313 0.419623
vt 0.734313 0.480440
vt 0.000000 0.419623
vt 0.000000 0.480440
vt 1.000000 0.419623
vt 1.000000 0.480440
vt 0.734313 0.299158
vt 1.000000 0.299158
vt 1.000000 0.358806
vt 0.734313 0.358806
vt 0.000000 0.299158
vt 0.207013 0.299158
vt 0.207013 0.358806
vt 0.000000 0.358806
vt 0.676734 0.299158
vt 0.676734 0.358806
vt 0.249440 0.299158
vt 0.249440 0.358806
vt 0.569911 0.299158
vt 0.569911 0.358806
vt 0.463087 0.299158
vt 0.375000 0.000000
vt 0.625000 0.000000
vt 0.625000 0.250000
vt 0.375000 0.250000
vt 0.625000 0.500000
vt 0.375000 0.500000
vt 0.463087 0.358806
vt 0.463087 0.419623
vt 0.569911 0.540684
vt 0.676734 0.540684
vt 0.676734 0.600927
vt 0.569911 0.600927
vt 0.207013 0.540684
vt 0.249440 0.540684
vt 0.249440 0.600927
vt 0.207013 0.600927
vt 0.734313 0.540684
vt 0.734313 0.600927
vt 0.000000 0.540684
vt 0.000000 0.600927
vt 1.000000 0.540684
vt 1.000000 0.600927
vt 0.463087 0.480440
vt 0.463087 0.540684
vt 0.463087 0.600927
vt 0.463087 0.662318
vt 0.625000 0.750000
vt 0.375000 0.750000
vt 0.625000 1.000000
vt 0.375000 1.000000
vt 0.125000 0.500000
vt 0.125000 0.750000
vt 0.875000 0.500000
vt 0.875000 0.750000
s 0
usemtl Material.001
f 59/35/20 50/36/20 48/37/20 58/38/20
f 117/39/20 115/40/20 50/36/20 59/35/20
f 57/41/20 46/42/20 52/43/20 60/44/20
f 45/45/20 53/46/20 56/47/20 51/48/20
f 121/49/20 116/50/20 55/51/20 49/52/20
f 49/52/20 55/51/20 54/53/20 47/54/20
f 65/55/20 57/41/20 60/44/20 68/56/20
f 119/57/20 117/39/20 59/35/20 67/58/20
f 67/58/20 59/35/20 58/38/20 66/59/20
f 55/51/20 62/60/20 61/61/20 54/53/20
f 116/50/20 118/62/20 62/60/20 55/51/20
f 53/46/20 64/63/20 63/64/20 56/47/20
f 124/65/20 67/58/20 66/59/20 123/66/20
f 132/67/20 119/57/20 67/58/20 124/65/20
f 122/68/20 65/55/20 68/56/20 125/69/20
f 64/63/20 72/70/20 71/71/20 63/64/20
f 62/60/20 70/72/20 69/73/20 61/61/20
f 129/74/20 98/75/20 78/76/20 126/77/20
f 95/78/20 97/79/20 77/80/20 75/81/20
f 98/75/20 96/82/20 76/83/20 78/76/20
f 100/84/20 95/78/20 75/81/20 74/85/20
f 96/82/20 94/86/20 73/87/20 76/83/20
f 90/88/20 88/89/20 81/90/20 83/91/20
f 87/92/20 89/93/20 82/94/20 80/95/20
f 92/96/20 90/88/20 83/91/20 85/97/20
f 89/93/20 91/98/20 84/99/20 82/94/20
f 128/100/20 92/96/20 85/97/20 127/101/20
f 63/64/20 71/71/20 93/102/20 91/98/20
f 133/103/21 134/104/21 136/105/21 135/106/21
f 56/47/20 63/64/20 91/98/20 89/93/20
f 68/56/20 60/44/20 90/88/20 92/96/20
f 51/48/20 56/47/20 89/93/20 87/92/20
f 60/44/20 52/43/20 88/89/20 90/88/20
f 83/91/20 81/90/20 94/86/20 96/82/20
f 80/95/20 82/94/20 95/78/20 100/84/20
f 85/97/20 83/91/20 96/82/20 98/75/20
f 82/94/20 84/99/20 97/79/20 95/78/20
f 139/106/22 140/105/22 138/107/22 137/108/22
f 84/99/20 86/109/20 99/110/20 97/79/20
f 131/111/20 113/112/20 105/113/20 130/114/20
f 110/115/20 112/116/20 104/117/20 102/118/20
f 113/112/20 111/119/20 103/120/20 105/113/20
f 108/121/20 110/115/20 102/118/20 107/122/20
f 111/119/20 109/123/20 101/124/20 103/120/20
f 76/83/20 73/87/20 109/123/20 111/119/20
f 74/85/20 75/81/20 110/115/20 108/121/20
f 78/76/20 76/83/20 111/119/20 113/112/20
f 75/81/20 77/80/20 112/116/20 110/115/20
f 77/80/20 79/125/20 114/126/20 112/116/20
f 104/117/20 106/127/20 120/128/20 118/62/20
f 102/118/20 104/117/20 118/62/20 116/50/20
f 105/113/20 103/120/20 117/39/20 119/57/20
f 107/122/20 102/118/20 116/50/20 121/49/20
f 103/120/20 101/124/20 115/40/20 117/39/20
f 114/126/20 131/111/20 130/114/20 106/127/20
f 137/108/23 138/107/23 134/129/23 133/130/23
f 135/130/24 136/129/24 140/131/24 139/132/24
f 93/102/20 128/100/20 127/101/20 86/109/20
f 99/110/20 129/74/20 126/77/20 79/125/20
f 72/70/20 122/68/20 125/69/20 71/71/20
f 120/128/20 132/67/20 124/65/20 70/72/20
f 70/72/20 124/65/20 123/66/20 69/73/20
f 135/133/20 139/108/20 137/130/20 133/134/20
f 140/107/25 136/135/25 134/136/25 138/129/25
f 141/103/21 142/104/21 144/105/21 143/106/21
f 143/106/24 144/105/24 148/107/24 147/108/24
f 147/108/22 148/107/22 146/129/22 145/130/22
f 145/130/23 146/129/23 142/131/23 141/132/23
f 143/133/20 147/108/20 145/130/20 141/134/20
f 148/107/25 144/135/25 142/136/25 146/129/25
f 149/103/21 150/104/21 152/105/21 151/106/21
f 151/106/24 152/105/24 156/107/24 155/108/24
f 155/108/22 156/107/22 154/129/22 153/130/22
f 153/130/23 154/129/23 150/131/23 149/132/23
f 151/133/20 155/108/20 153/130/20 149/134/20
f 156/107/25 152/135/25 150/136/25 154/129/25
f 157/103/21 158/104/21 160/105/21 159/106/21
f 159/106/24 160/105/24 164/107/24 163/108/24
f 163/108/22 164/107/22 162/129/22 161/130/22
f 161/130/23 162/129/23 158/131/23 157/132/23
f 159/133/20 163/108/20 161/130/20 157/134/20
f 164/107/25 160/135/25 158/136/25 162/129/25
o Plane.004
v 9.253209 18.820026 9.467983
v 9.253211 -0.014247 9.467983
v 28.212082 18.820026 9.467983
v 28.212086 -0.014245 9.467983
vn -0.0000 -0.0000 1.0000
vt 0.000000 0.000000
vt 1.000000 0.000000
vt 1.000000 1.000000
vt 0.000000 1.000000
s 0
usemtl Material.001
f 165/137/26 166/138/26 168/139/26 167/140/26
o Plane.005
v 9.253210 -0.001419 24.111000
v 9.253210 -0.001419 9.413163
v 28.212084 -0.001426 24.111000
v 28.212084 -0.001426 9.413162
vn -0.0000 -1.0000 -0.0000
vt 0.000000 0.000000
vt 1.000000 0.000000
vt 1.000000 1.000000
vt 0.000000 1.000000
s 0
f 169/141/27 170/142/27 172/143/27 171/144/27
o Plane.006
v -10.091974 18.820024 24.140339
v -10.091974 -0.014248 24.140339
v 28.027571 18.820028 24.140339
v 28.027571 -0.014244 24.140339
vn -0.0000 -0.0000 1.0000
vt 0.000000 0.000000
vt 1.000000 0.000000
vt 1.000000 1.000000
vt 0.000000 1.000000
s 0
usemtl Material.001
f 173/145/28 174/146/28 176/147/28 175/148/28
o Plane.007
v -9.195400 18.748400 24.213911
v 28.035801 18.748400 24.213911
v -9.195400 18.748400 -9.567690
v 28.035801 18.748400 -9.567690
vn -0.0000 1.0000 -0.0000
vt 0.000000 0.000000
vt 1.000000 0.000000
vt 1.000000 1.000000
vt 0.000000 1.000000
s 0
f 177/149/29 178/150/29 180/151/29 179/152/29
o Plane.008
v 28.095024 18.884106 24.111000
v 28.095024 18.884106 9.413163
v 28.049198 -0.074712 24.111000
v 28.049198 -0.074712 9.413162
vn -1.0000 0.0024 -0.0000
vt 0.000000 0.000000
vt 1.000000 0.000000
vt 1.000000 1.000000
vt 0.000000 1.000000
s 0
usemtl Material.001
f 181/153/30 182/154/30 184/155/30 183/156/30
o Cube
v 26.762484 -0.547559 -8.394777
v 26.762484 18.839764 -8.394777
v 26.762484 -0.547559 -9.434778
v 26.762484 18.839764 -9.434778
v 27.802485 -0.547559 -8.394777
v 27.802485 18.839764 -8.394777
v 27.802485 -0.547559 -9.434778
v 27.802485 18.839764 -9.434778
vn -1.0000 -0.0000 -0.0000
vn -0.0000 -0.0000 -1.0000
vn 1.0000 -0.0000 -0.0000
vn -0.0000 -0.0000 1.0000
vn -0.0000 -1.0000 -0.0000
vn -0.0000 1.0000 -0.0000
vt 0.375000 0.000000
vt 0.625000 0.000000
vt 0.625000 0.250000
vt 0.375000 0.250000
vt 0.625000 0.500000
vt 0.375000 0.500000
vt 0.625000 0.750000
vt 0.375000 0.750000
vt 0.625000 1.000000
vt 0.375000 1.000000
vt 0.125000 0.500000
vt 0.125000 0.750000
vt 0.875000 0.500000
vt 0.875000 0.750000
s 0
usemtl Material.002
f 185/157/31 186/158/31 188/159/31 187/160/31
f 187/160/32 188/159/32 192/161/32 191/162/32
f 191/162/33 192/161/33 190/163/33 189/164/33
f 189/164/34 190/163/34 186/165/34 185/166/34
f 187/167/35 191/162/35 189/164/35 185/168/35
f 192/161/36 188/169/36 186/170/36 190/163/36
o Cube.001
v -10.275036 18.420597 23.969748
v -10.325504 18.980993 24.171667
v -10.325504 18.515806 -9.609934
v -10.325504 18.980993 -9.609934
v 29.165905 18.515806 24.171667
v 29.165905 18.980993 24.171667
v 29.165905 18.515806 -9.609934
v 29.165905 18.980993 -9.609934
v -10.300270 18.468203 7.179908
v -10.325504 18.980993 7.280867
v 29.165905 18.515806 7.280867
v 29.165905 18.980993 7.280867
v 9.420200 18.515806 -9.609934
v 9.420200 18.980993 -9.609934
v 9.445435 18.468203 24.070707
v 9.420200 18.980993 24.171667
v 9.430752 27.912666 7.337810
v 9.432817 18.492004 7.230387
vn -0.9997 -0.0259 0.0007
vn -0.0000 -0.0000 -1.0000
vn 1.0000 -0.0000 -0.0000
vn -0.0021 -0.2718 0.9624
vn 0.0018 -1.0000 -0.0007
vn -0.2139 0.9443 0.2500
vn -0.2132 0.9447 -0.2493
vn 0.0006 -1.0000 -0.0007
vn -0.9975 -0.0705 0.0006
vn 0.0006 -1.0000 -0.0021
vn 0.2133 0.9446 -0.2494
vn 0.2140 0.9443 0.2501
vn 0.0018 -1.0000 -0.0021
vn -0.0024 -0.1027 0.9947
vt 0.375000 0.125000
vt 0.625000 0.125000
vt 0.625000 0.250000
vt 0.375000 0.250000
vt 0.375000 0.375000
vt 0.625000 0.375000
vt 0.625000 0.500000
vt 0.375000 0.500000
vt 0.375000 0.625000
vt 0.625000 0.625000
vt 0.625000 0.750000
vt 0.375000 0.750000
vt 0.375000 0.875000
vt 0.625000 0.875000
vt 0.625000 1.000000
vt 0.375000 1.000000
vt 0.250000 0.625000
vt 0.250000 0.750000
vt 0.750000 0.625000
vt 0.875000 0.625000
vt 0.875000 0.750000
vt 0.750000 0.750000
vt 0.750000 0.500000
vt 0.875000 0.500000
vt 0.250000 0.500000
vt 0.375000 0.000000
vt 0.625000 0.000000
vt 0.125000 0.500000
vt 0.125000 0.625000
vt 0.125000 0.750000
s 0
usemtl Material.002
f 201/171/37 202/172/37 196/173/37 195/174/37
f 205/175/38 206/176/38 200/177/38 199/178/38
f 203/179/39 204/180/39 198/181/39 197/182/39
f 207/183/40 208/184/40 194/185/40 193/186/40
f 210/187/41 203/179/41 197/182/41 207/188/41
f 209/189/42 202/190/42 194/191/42 208/192/42
f 206/193/43 196/194/43 202/190/43 209/189/43
f 205/195/44 199/178/44 203/179/44 210/187/44
f 199/178/39 200/177/39 204/180/39 203/179/39
f 193/196/45 194/197/45 202/172/45 201/171/45
f 195/198/46 205/195/46 210/187/46 201/199/46
f 200/177/47 206/193/47 209/189/47 204/180/47
f 204/180/48 209/189/48 208/192/48 198/181/48
f 201/199/49 210/187/49 207/188/49 193/200/49
f 197/182/50 198/181/50 208/184/50 207/183/50
f 195/174/38 196/173/38 206/176/38 205/175/38
